<svg xmlns="http://www.w3.org/2000/svg" width="29" height="29" viewBox="0 0 29 29" fill="none" class="s-ssU3wddxyxcf">
    <path
        d="M27.3334 21.5595V25.5595C27.3349 25.9308 27.2589 26.2984 27.1101 26.6386C26.9613 26.9788 26.7431 27.2843 26.4695 27.5353C26.1959 27.7863 25.8728 27.9775 25.5211 28.0964C25.1693 28.2154 24.7966 28.2596 24.4267 28.2261C20.3239 27.7803 16.3827 26.3783 12.9201 24.1328C9.69851 22.0857 6.96719 19.3544 4.92007 16.1328C2.66671 12.6544 1.2644 8.69414 0.82674 4.57281C0.793421 4.2041 0.83724 3.83249 0.955407 3.48164C1.07357 3.1308 1.2635 2.8084 1.51309 2.53497C1.76269 2.26155 2.06648 2.04309 2.40513 1.89351C2.74378 1.74392 3.10986 1.66649 3.48007 1.66614H7.48007C8.12715 1.65978 8.75446 1.88892 9.24509 2.31086C9.73572 2.73279 10.0562 3.31874 10.1467 3.95948C10.3156 5.23957 10.6287 6.49645 11.0801 7.70615C11.2595 8.18338 11.2983 8.70203 11.1919 9.20065C11.0856 9.69927 10.8386 10.157 10.4801 10.5195L8.78674 12.2128C10.6848 15.5509 13.4487 18.3147 16.7867 20.2128L18.4801 18.5195C18.8426 18.161 19.3003 17.9139 19.7989 17.8076C20.2975 17.7013 20.8162 17.7401 21.2934 17.9195C22.5031 18.3709 23.76 18.684 25.0401 18.8528C25.6878 18.9442 26.2793 19.2704 26.7021 19.7695C27.125 20.2685 27.3496 20.9056 27.3334 21.5595Z"
        stroke="#fff" stroke-width="1.5" stroke-linecap="round" stroke-linejoin="round"></path>
</svg>